<?xml version="1.0" encoding="UTF-8" standalone="no"?>
<!-- Created with Inkscape (http://www.inkscape.org/) -->

<svg
   width="145.0748mm"
   height="109.36391mm"
   viewBox="0 0 145.0748 109.36391"
   version="1.1"
   id="svg1"
   inkscape:version="1.3.2 (091e20ef0f, 2023-11-25)"
   sodipodi:docname="lookaside-registry.svg"
   xmlns:inkscape="http://www.inkscape.org/namespaces/inkscape"
   xmlns:sodipodi="http://sodipodi.sourceforge.net/DTD/sodipodi-0.dtd"
   xmlns="http://www.w3.org/2000/svg"
   xmlns:svg="http://www.w3.org/2000/svg">
  <sodipodi:namedview
     id="namedview1"
     pagecolor="#ffffff"
     bordercolor="#000000"
     borderopacity="0.25"
     inkscape:showpageshadow="2"
     inkscape:pageopacity="0.0"
     inkscape:pagecheckerboard="0"
     inkscape:deskcolor="#d1d1d1"
     inkscape:document-units="mm"
     inkscape:zoom="1.3654423"
     inkscape:cx="199.20285"
     inkscape:cy="183.09085"
     inkscape:window-width="2876"
     inkscape:window-height="1576"
     inkscape:window-x="1920"
     inkscape:window-y="20"
     inkscape:window-maximized="1"
     inkscape:current-layer="layer1" />
  <defs
     id="defs1">
    <marker
       style="overflow:visible"
       id="marker39"
       refX="0"
       refY="0"
       orient="auto-start-reverse"
       inkscape:stockid="Dart arrow"
       markerWidth="1"
       markerHeight="1"
       viewBox="0 0 1 1"
       inkscape:isstock="true"
       inkscape:collect="always"
       preserveAspectRatio="xMidYMid">
      <path
         style="fill:context-stroke;fill-rule:evenodd;stroke:none"
         d="M 0,0 5,-5 -12.5,0 5,5 Z"
         transform="scale(-0.5)"
         id="path39" />
    </marker>
    <radialGradient
       id="radial-gradient"
       cx="438.29999"
       cy="639.01001"
       r="569.94"
       gradientUnits="userSpaceOnUse">
      <stop
         offset="0"
         stop-color="#6877ec"
         id="stop1" />
      <stop
         offset="0.6"
         stop-color="#5362cf"
         id="stop2" />
      <stop
         offset="1"
         stop-color="#4352b9"
         id="stop3" />
    </radialGradient>
    <radialGradient
       id="radial-gradient-2"
       cx="65.639999"
       cy="-16.209999"
       r="746.46002"
       gradientUnits="userSpaceOnUse">
      <stop
         offset="0"
         stop-color="#00d5ff"
         id="stop4" />
      <stop
         offset="0.38"
         stop-color="#00b8eb"
         id="stop5" />
      <stop
         offset="1"
         stop-color="#0080c5"
         id="stop6" />
    </radialGradient>
    <linearGradient
       id="linear-gradient"
       x1="74.769997"
       y1="67.300003"
       x2="277.23001"
       y2="512.71997"
       gradientUnits="userSpaceOnUse">
      <stop
         offset="0"
         stop-color="#294ca7"
         id="stop7" />
      <stop
         offset="0.48"
         stop-color="#96a7d4"
         id="stop8" />
      <stop
         offset="0.84"
         stop-color="#e1e6f3"
         id="stop9" />
      <stop
         offset="1"
         stop-color="#fff"
         id="stop10" />
    </linearGradient>
    <linearGradient
       id="linear-gradient-2"
       x1="-228.74001"
       y1="-144.28999"
       x2="451"
       y2="651.89001"
       gradientUnits="userSpaceOnUse">
      <stop
         offset="0"
         stop-color="#6877ec"
         id="stop11" />
      <stop
         offset="0.29"
         stop-color="#97a1f2"
         id="stop12" />
      <stop
         offset="0.77"
         stop-color="#e2e4fb"
         id="stop13" />
      <stop
         offset="1"
         stop-color="#fff"
         id="stop14" />
    </linearGradient>
    <linearGradient
       id="linear-gradient-3"
       x1="-151.22"
       y1="-285.89999"
       x2="450.07999"
       y2="430.63"
       gradientUnits="userSpaceOnUse">
      <stop
         offset="0"
         stop-color="#8397cc"
         id="stop15" />
      <stop
         offset="0.15"
         stop-color="#97a8d4"
         id="stop16" />
      <stop
         offset="0.73"
         stop-color="#e2e6f3"
         id="stop17" />
      <stop
         offset="1"
         stop-color="#fff"
         id="stop18" />
    </linearGradient>
    <radialGradient
       id="radial-gradient-3"
       cx="259.67999"
       cy="-34.709999"
       r="431.37"
       gradientUnits="userSpaceOnUse">
      <stop
         offset="0"
         stop-color="#fff"
         id="stop19" />
      <stop
         offset="1"
         id="stop20" />
    </radialGradient>
    <marker
       style="overflow:visible"
       id="marker39-2"
       refX="0"
       refY="0"
       orient="auto-start-reverse"
       inkscape:stockid="Dart arrow"
       markerWidth="1"
       markerHeight="1"
       viewBox="0 0 1 1"
       inkscape:isstock="true"
       inkscape:collect="always"
       preserveAspectRatio="xMidYMid">
      <path
         style="fill:context-stroke;fill-rule:evenodd;stroke:none"
         d="M 0,0 5,-5 -12.5,0 5,5 Z"
         transform="scale(-0.5)"
         id="path39-5" />
    </marker>
    <marker
       style="overflow:visible"
       id="marker39-0"
       refX="0"
       refY="0"
       orient="auto-start-reverse"
       inkscape:stockid="Dart arrow"
       markerWidth="1"
       markerHeight="1"
       viewBox="0 0 1 1"
       inkscape:isstock="true"
       inkscape:collect="always"
       preserveAspectRatio="xMidYMid">
      <path
         style="fill:context-stroke;fill-rule:evenodd;stroke:none"
         d="M 0,0 5,-5 -12.5,0 5,5 Z"
         transform="scale(-0.5)"
         id="path39-7" />
    </marker>
    <marker
       style="overflow:visible"
       id="marker39-0-3"
       refX="0"
       refY="0"
       orient="auto-start-reverse"
       inkscape:stockid="Dart arrow"
       markerWidth="1"
       markerHeight="1"
       viewBox="0 0 1 1"
       inkscape:isstock="true"
       inkscape:collect="always"
       preserveAspectRatio="xMidYMid">
      <path
         style="fill:context-stroke;fill-rule:evenodd;stroke:none"
         d="M 0,0 5,-5 -12.5,0 5,5 Z"
         transform="scale(-0.5)"
         id="path39-7-1" />
    </marker>
  </defs>
  <g
     inkscape:label="Layer 1"
     inkscape:groupmode="layer"
     id="layer1"
     transform="translate(-45.504186,-34.905606)">
    <path
       style="fill:none;stroke:#000000;stroke-width:0.661;stroke-dasharray:1.983, 1.983;stroke-dashoffset:0;stroke-opacity:1;marker-end:url(#marker39)"
       d="M 64.225981,93.557412 C 62.167488,85.113974 61.624234,77.400529 61.630234,71.236307"
       id="path37"
       sodipodi:nodetypes="cc" />
    <path
       style="fill:none;stroke:#000000;stroke-width:0.661;stroke-dasharray:none;stroke-opacity:1"
       d="M 81.970143,129.21143 C 75.535478,121.04958 69.992728,111.64705 66.343851,100.85328"
       id="path37-6"
       sodipodi:nodetypes="cc" />
    <path
       style="fill:none;stroke:#000000;stroke-width:0.661;stroke-dasharray:none;stroke-opacity:1;marker-end:url(#marker39-0)"
       d="M 95.828674,90.192291 C 104.5573,81.463669 118.03219,75.911798 127.26023,75.920779"
       id="path37-8"
       sodipodi:nodetypes="cc" />
    <path
       style="fill:none;stroke:#000000;stroke-width:0.661;stroke-dasharray:none;stroke-opacity:1;marker-end:url(#marker39-0-3)"
       d="M 146.83569,91.967973 C 145.87434,104.27462 127.83514,121.9091 113.19886,128.65544"
       id="path37-8-2"
       sodipodi:nodetypes="cc" />
    <path
       style="fill:none;stroke:#000000;stroke-width:0.661;stroke-dasharray:none;stroke-opacity:1;marker-end:url(#marker39-2)"
       d="M 71.659505,67.309677 C 86.190164,85.740637 92.018987,105.1754 91.999414,125.2848"
       id="path37-4"
       sodipodi:nodetypes="cc" />
    <rect
       style="fill:none;stroke:#000000;stroke-width:0.661001;stroke-opacity:1"
       id="rect1"
       width="40.769421"
       height="14.938133"
       x="68.971443"
       y="129.00089"
       ry="3.0199244" />
    <rect
       style="fill:#ffffff;fill-opacity:1;stroke:#000000;stroke-width:0.661001;stroke-opacity:1"
       id="rect1-1"
       width="40.769421"
       height="14.938133"
       x="55.77216"
       y="89.101334"
       ry="3.0144007" />
    <rect
       style="fill:none;stroke:#000000;stroke-width:0.661001;stroke-opacity:1"
       id="rect1-1-7"
       width="58.940311"
       height="19.034994"
       x="131.30817"
       y="72.53508"
       ry="4.7688355" />
    <text
       xml:space="preserve"
       style="font-size:6.35px;line-height:1.75;font-family:'Fira Code';-inkscape-font-specification:'Fira Code';text-align:center;text-anchor:middle;fill:#000000;fill-opacity:1;stroke:none;stroke-width:0.428096"
       x="92.758064"
       y="139.05524"
       id="text1"><tspan
         sodipodi:role="line"
         id="tspan1"
         style="font-style:normal;font-variant:normal;font-weight:normal;font-stretch:normal;font-family:Comfortaa;-inkscape-font-specification:Comfortaa;fill:#000000;fill-opacity:1;stroke:none;stroke-width:0.428096"
         x="92.758064"
         y="139.05524">Poetry</tspan></text>
    <text
       xml:space="preserve"
       style="font-size:6.35px;line-height:1.75;font-family:'Fira Code';-inkscape-font-specification:'Fira Code';text-align:center;text-anchor:middle;fill:#000000;fill-opacity:1;stroke:none;stroke-width:0.428096"
       x="75.767883"
       y="98.960793"
       id="text1-4"><tspan
         sodipodi:role="line"
         id="tspan1-5"
         style="font-style:normal;font-variant:normal;font-weight:normal;font-stretch:normal;font-family:Comfortaa;-inkscape-font-specification:Comfortaa;fill:#000000;fill-opacity:1;stroke:none;stroke-width:0.428096"
         x="75.767883"
         y="98.960793">PyPI Proxy</tspan></text>
    <text
       xml:space="preserve"
       style="font-size:6.35px;line-height:1.05;font-family:'Fira Code';-inkscape-font-specification:'Fira Code';text-align:center;text-anchor:middle;fill:#000000;fill-opacity:1;stroke:none;stroke-width:0.428096"
       x="172.06165"
       y="81.186615"
       id="text1-4-7"><tspan
         sodipodi:role="line"
         id="tspan1-5-6"
         style="font-style:normal;font-variant:normal;font-weight:normal;font-stretch:normal;line-height:1.05;font-family:Comfortaa;-inkscape-font-specification:Comfortaa;fill:#000000;fill-opacity:1;stroke:none;stroke-width:0.428096"
         x="172.06165"
         y="81.186615">System</tspan><tspan
         sodipodi:role="line"
         style="font-style:normal;font-variant:normal;font-weight:normal;font-stretch:normal;line-height:1.05;font-family:Comfortaa;-inkscape-font-specification:Comfortaa;fill:#000000;fill-opacity:1;stroke:none;stroke-width:0.428096"
         x="172.06165"
         y="88.108971"
         id="tspan2">packages</tspan></text>
    <g
       class="cls-1"
       id="g25"
       style="isolation:isolate"
       transform="matrix(0.01505374,0,0,0.01505374,73.079012,132.52566)">
      <g
         id="Layer_1"
         data-name="Layer 1">
        <path
           class="cls-2"
           d="M 168.08,560 A 570.54,570.54 0 0 0 459.84,403.59 L 56.25,0 v 448.17 z"
           transform="translate(-56.25)"
           id="path20"
           style="fill:url(#radial-gradient)" />
        <path
           class="cls-3"
           d="M 56.25,448.17 C 303.77,448.17 504.42,247.52 504.42,0 H 56.25 Z"
           transform="translate(-56.25)"
           id="path21"
           style="fill:url(#radial-gradient-2)" />
        <path
           class="cls-4"
           d="m 56.25,448.17 v 0 l 17.25,17.25 c 121.57,-4.45 231.4,-55.68 312,-136.23 L 373.21,316.91 A 446.8,446.8 0 0 1 56.25,448.17 Z"
           transform="translate(-56.25)"
           id="path22"
           style="mix-blend-mode:multiply;fill:url(#linear-gradient)" />
        <path
           class="cls-5"
           d="M 168.08,560 A 570.54,570.54 0 0 0 459.84,403.59 L 56.25,0 v 448.17 z"
           transform="translate(-56.25)"
           id="path23"
           style="mix-blend-mode:multiply;fill:url(#linear-gradient-2)" />
        <path
           class="cls-6"
           d="M 459.84,403.59 56.25,0 423.14,437.13 c 12.69,-10.67 24.98,-21.82 36.7,-33.54 z"
           transform="translate(-56.25)"
           id="path24"
           style="mix-blend-mode:multiply;fill:url(#linear-gradient-3)" />
        <path
           class="cls-7"
           d="m 56.25,0 316.91,316.91 q 4.23,-4.25 8.35,-8.6 z"
           transform="translate(-56.25)"
           id="path25"
           style="mix-blend-mode:screen;fill:url(#radial-gradient-3)" />
      </g>
    </g>
    <rect
       style="fill:none;stroke:#000000;stroke-width:0.661001;stroke-opacity:1"
       id="rect1-2"
       width="43.203266"
       height="32.335693"
       x="45.834686"
       y="35.236107"
       ry="3.5406137" />
    <g
       id="g1"
       transform="matrix(0.57978992,0,0,0.57978992,28.053229,27.667187)">
      <path
         d="m 41.500912,49.0156 4.38996,1.597939 4.455153,-1.621646 -4.38996,-1.59794 z m 4.409151,-3.607641 4.390242,1.597939 4.454871,-1.621646 -4.38996,-1.59794 z"
         fill="#f7f7f4"
         stroke="#cccccc"
         stroke-width="0.100189"
         stroke-linejoin="bevel"
         id="path1" />
      <path
         d="m 45.910063,45.407959 4.390242,1.597939 v 5.159579 l -4.390242,-1.597658 z"
         fill="#efeeea"
         stroke="#cccccc"
         stroke-width="0.100189"
         stroke-linejoin="bevel"
         id="path2" />
      <path
         d="m 37.091761,55.829562 4.38996,1.598222 4.455153,-1.621646 -4.390242,-1.59794 z"
         fill="#f7f7f4"
         stroke="#cccccc"
         stroke-width="0.100189"
         stroke-linejoin="bevel"
         id="path3" />
      <path
         d="m 37.091761,55.829562 4.38996,1.598222 v 5.159579 l -4.38996,-1.597658 z"
         fill="#efeeea"
         stroke="#cccccc"
         stroke-width="0.100189"
         stroke-linejoin="bevel"
         id="path4" />
      <path
         d="m 37.091761,48.491796 4.38996,1.598222 4.455153,-1.621646 -4.390242,-1.59794 z"
         fill="#f7f7f4"
         stroke="#cccccc"
         stroke-width="0.100189"
         stroke-linejoin="bevel"
         id="path5" />
      <path
         d="m 41.481721,50.090018 v 5.159578 l 4.455153,-1.621364 v -5.15986 z"
         fill="#ffffff"
         stroke="#cccccc"
         stroke-width="0.100189"
         stroke-linejoin="bevel"
         id="path6" />
      <path
         d="m 37.091761,48.491796 4.38996,1.598222 v 5.159578 l -4.38996,-1.597657 z"
         fill="#efeeea"
         stroke="#cccccc"
         stroke-width="0.100189"
         stroke-linejoin="bevel"
         id="path7" />
      <path
         d="m 41.552841,44.102965 -0.0071,0.0087 a 0.78542321,0.78542321 0 0 0 -0.778368,0.784859 0.78542321,0.78542321 0 0 0 0.01496,0.150142 l -3.314695,4.059478 2.15815,2.642724 -1.092198,-2.642724 2.817984,-3.451008 a 0.78542321,0.78542321 0 0 0 0.201789,0.02709 0.78542321,0.78542321 0 0 0 0.201788,-0.02653 l 1.499727,1.8367 1.516377,0.551743 -2.447427,-2.997477 a 0.78542321,0.78542321 0 0 0 0.01439,-0.14986 0.78542321,0.78542321 0 0 0 -0.777803,-0.785141 l -0.0071,-0.0085 z m 0.602544,-2.057115 a 0.60282572,0.60282572 0 1 0 -1.205087,0 v 0.921455 a 0.60282572,0.60282572 0 0 0 1.205087,0 z m -0.276578,-5.64e-4 v 0.921454 a 0.32596616,0.32596616 0 0 1 -0.651932,0 v -0.921454 a 0.32596616,0.32596616 0 1 1 0.651932,0 z m 0.276578,-3.163988 a 0.60282572,0.60282572 0 1 0 -1.205087,0 v 0.921736 a 0.60282572,0.60282572 0 0 0 1.205087,0 z m -0.276578,-5.65e-4 v 0.921737 a 0.32596616,0.32596616 0 0 1 -0.651932,0 v -0.921737 a 0.32596616,0.32596616 0 1 1 0.651932,0 z"
         fill="#646464"
         id="path8"
         style="stroke-width:0.282222" />
      <path
         d="m 41.699596,40.007363 v 1.833877 a 0.14675533,0.14675533 0 1 1 -0.29351,0 v -1.833877 a 0.14675533,0.14675533 0 1 1 0.29351,0 z m 0,3.164552 v 1.833877 a 0.14675533,0.14675533 0 1 1 -0.29351,0 v -1.833877 a 0.14675533,0.14675533 0 1 1 0.29351,0 z m 0,-6.339547 v 1.833877 a 0.14675533,0.14675533 0 1 1 -0.29351,0 v -1.833877 a 0.14675533,0.14675533 0 1 1 0.29351,0 z"
         fill="#646464"
         id="path9"
         style="stroke-width:0.282222" />
      <path
         d="m 41.50063,57.433146 4.390242,1.59794 v 5.159861 l -4.38996,-1.59794 z"
         fill="#efeeea"
         stroke="#cccccc"
         stroke-width="0.100189"
         stroke-linejoin="bevel"
         id="path10" />
      <path
         d="m 41.50063,52.222203 4.390242,1.59794 4.455153,-1.621646 -4.38996,-1.597658 z"
         fill="#f7f7f4"
         stroke="#cccccc"
         stroke-width="0.100189"
         stroke-linejoin="bevel"
         id="path11" />
      <path
         d="m 41.50063,52.222203 4.390242,1.59794 v 5.159861 l -4.38996,-1.59794 z"
         fill="#efeeea"
         stroke="#cccccc"
         stroke-width="0.100189"
         stroke-linejoin="bevel"
         id="path12" />
      <path
         d="m 63.52804,55.8242 v 5.159861 l 4.454871,-1.621364 v -5.159861 z"
         fill="#ffffff"
         stroke="#cccccc"
         stroke-width="0.100189"
         stroke-linejoin="bevel"
         id="path13" />
      <path
         d="m 59.118607,57.427784 v 5.159579 l 4.455153,-1.621364 v -5.159861 z"
         fill="#ffd242"
         stroke="#cccccc"
         stroke-width="0.100189"
         stroke-linejoin="bevel"
         id="path14" />
      <path
         d="m 62.766323,58.685647 a 0.7385744,1.0546628 35 0 1 -0.855696,1.22202 0.7385744,1.0546628 35 0 1 -0.855414,-0.598875 0.7385744,1.0546628 35 0 1 0.855414,-1.22202 0.7385744,1.0546628 35 0 1 0.855696,0.599157 z"
         fill="#ffffff"
         id="path15"
         style="stroke-width:0.282222" />
      <path
         d="m 54.709456,59.031086 v 5.159861 l 4.455153,-1.621646 V 57.40944 Z"
         fill="#ffd242"
         stroke="#cccccc"
         stroke-width="0.100189"
         stroke-linejoin="bevel"
         id="path16" />
      <path
         d="m 50.300305,60.634388 v 5.159861 l 4.454871,-1.621647 v -5.159578 z"
         fill="#ffffff"
         stroke="#cccccc"
         stroke-width="0.100189"
         stroke-linejoin="bevel"
         id="path17" />
      <path
         d="m 45.910063,59.036448 4.390242,1.59794 v 5.159861 l -4.390242,-1.59794 z"
         fill="#efeeea"
         stroke="#cccccc"
         stroke-width="0.100189"
         stroke-linejoin="bevel"
         id="path18" />
      <path
         d="m 63.52804,50.613539 v 5.159579 l 4.454871,-1.621364 v -5.159861 z"
         fill="#ffd242"
         stroke="#cccccc"
         stroke-width="0.100189"
         stroke-linejoin="bevel"
         id="path19" />
      <path
         d="m 59.137798,43.804657 4.390242,1.597939 4.454871,-1.621646 -4.38996,-1.59794 z"
         fill="#ffc91d"
         stroke="#cccccc"
         stroke-width="0.100189"
         stroke-linejoin="bevel"
         id="path20-2" />
      <path
         d="m 63.52804,45.402596 v 5.159579 l 4.454871,-1.621364 V 43.78095 Z m -4.409433,6.814245 v 5.159579 l 4.455153,-1.621364 v -5.159861 z"
         fill="#ffd242"
         stroke="#cccccc"
         stroke-width="0.100189"
         stroke-linejoin="bevel"
         id="path21-8" />
      <path
         d="m 59.118607,47.005898 v 5.159579 l 4.455153,-1.621364 v -5.159861 z"
         fill="#3775a9"
         stroke="#cccccc"
         stroke-width="0.100189"
         stroke-linejoin="bevel"
         id="path22-9" />
      <path
         d="m 54.728647,40.197016 4.38996,1.597939 4.455153,-1.621646 -4.38996,-1.597658 z"
         fill="#2f6491"
         stroke="#cccccc"
         stroke-width="0.100189"
         stroke-linejoin="bevel"
         id="path23-7" />
      <path
         d="m 59.118607,41.794673 v 5.159861 L 63.57376,45.33317 v -5.159861 z"
         fill="#3775a9"
         stroke="#cccccc"
         stroke-width="0.100189"
         stroke-linejoin="bevel"
         id="path24-3" />
      <path
         d="m 54.709456,53.820143 v 5.159861 l 4.455153,-1.621646 v -5.159861 z"
         fill="#ffd242"
         stroke="#cccccc"
         stroke-width="0.100189"
         stroke-linejoin="bevel"
         id="path25-6" />
      <path
         d="m 54.709456,48.6092 v 5.159861 l 4.455153,-1.621646 v -5.159861 z m -4.409151,6.814245 v 5.159861 l 4.454871,-1.621646 v -5.159579 z"
         fill="#3775a9"
         stroke="#cccccc"
         stroke-width="0.100189"
         stroke-linejoin="bevel"
         id="path26" />
      <path
         d="m 45.910063,53.825788 4.390242,1.597657 v 5.159861 l -4.390242,-1.59794 z m 0,-5.211226 4.390242,1.59794 4.454871,-1.621364 -4.38996,-1.59794 z"
         fill="#2f6491"
         stroke="#cccccc"
         stroke-width="0.100189"
         stroke-linejoin="bevel"
         id="path27" />
      <path
         d="m 50.300305,50.212502 v 5.159861 l 4.454871,-1.621646 v -5.159579 z"
         fill="#3775a9"
         stroke="#cccccc"
         stroke-width="0.100189"
         stroke-linejoin="bevel"
         id="path28" />
      <path
         d="m 45.910063,48.614562 4.390242,1.59794 v 5.159861 l -4.390242,-1.59794 z m 4.409433,-6.814244 4.38996,1.597939 4.455153,-1.621646 -4.390242,-1.597658 z"
         fill="#2f6491"
         stroke="#cccccc"
         stroke-width="0.100189"
         stroke-linejoin="bevel"
         id="path29" />
      <path
         d="m 54.709456,43.398257 v 5.159861 l 4.455153,-1.621646 v -5.159861 z"
         fill="#3775a9"
         stroke="#cccccc"
         stroke-width="0.100189"
         stroke-linejoin="bevel"
         id="path30" />
      <path
         d="m 50.319496,41.800318 4.38996,1.597939 v 5.159861 l -4.38996,-1.59794 z"
         fill="#2f6491"
         stroke="#cccccc"
         stroke-width="0.100189"
         stroke-linejoin="bevel"
         id="path31" />
      <path
         d="m 57.228285,45.055464 a 0.7385744,1.0546628 35 0 1 -0.855696,1.22202 0.7385744,1.0546628 35 0 1 -0.855696,-0.599157 0.7385744,1.0546628 35 0 1 0.855696,-1.22202 0.7385744,1.0546628 35 0 1 0.855696,0.599157 z"
         fill="#ffffff"
         id="path32"
         style="stroke-width:0.282222" />
      <path
         d="m 47.388059,27.635042 c 0,-2.722029 -0.77611,-4.119591 -2.32833,-4.196073 a 4.3735909,4.3735909 0 0 0 -1.807631,0.296897 c -0.468205,0.16764 -0.783447,0.333586 -0.949111,0.501226 v 6.497027 c 0.992856,0.623146 1.874799,0.912706 2.643571,0.867268 1.627009,-0.107244 2.441501,-1.428325 2.441501,-3.966345 z m 1.914874,0.112889 c 0,1.382886 -0.324555,2.530682 -0.976487,3.443388 -0.727003,1.032931 -1.734535,1.565202 -3.022595,1.594553 -0.971125,0.03104 -1.971602,-0.273755 -3.000864,-0.911294 v 5.905208 L 40.637878,37.185709 V 24.078483 c 0.273191,-0.335279 0.624557,-0.623146 1.050994,-0.867267 0.991163,-0.577708 2.195685,-0.874606 3.613003,-0.888999 l 0.02371,0.02342 c 1.295398,-0.01637 2.293899,0.51562 2.99522,1.594553 0.65419,0.989188 0.982131,2.25721 0.982131,3.807737 z M 59.480415,31.6234 c 0,1.854762 -0.185702,3.139153 -0.557388,3.853456 -0.373661,0.714021 -1.084014,1.284109 -2.133596,1.708853 -0.850899,0.33528 -1.770942,0.517595 -2.758436,0.548357 l -0.275166,-1.0493 c 1.003863,-0.136596 1.710828,-0.273473 2.120896,-0.410069 0.807155,-0.27319 1.360874,-0.69229 1.665109,-1.253347 0.244122,-0.457199 0.36463,-1.330111 0.36463,-2.62184 v -0.433775 a 8.5561177,8.5561177 0 0 1 -3.580265,0.774417 c -0.819854,0 -1.543189,-0.256822 -2.166334,-0.774417 -0.69991,-0.563032 -1.049583,-1.277053 -1.049583,-2.142628 v -6.930802 l 1.665108,-0.570088 v 6.97624 c 0,0.745066 0.240735,1.319105 0.721641,1.721553 0.481188,0.40273 1.104334,0.596052 1.867744,0.581377 0.76341,-0.01637 1.581289,-0.311573 2.450532,-0.888999 v -8.138994 h 1.665108 V 31.6234 Z m 6.500979,1.071314 c -0.198684,0.01637 -0.380999,0.02342 -0.548357,0.02342 -0.942056,0 -1.676397,-0.224084 -2.20133,-0.673945 -0.522675,-0.450144 -0.785141,-1.071314 -0.785141,-1.864075 v -6.55883 H 61.30639 v -1.04789 h 1.140176 v -2.782142 l 1.663698,-0.592101 v 3.374243 h 1.87113 v 1.047608 h -1.87113 v 6.513678 c 0,0.624839 0.167639,1.067645 0.502637,1.326443 0.287866,0.213077 0.745065,0.335279 1.368493,0.366041 v 0.867268 z m 10.082938,-0.136878 h -1.665391 v -6.427883 c 0,-0.653908 -0.153247,-1.21694 -0.457199,-1.687122 -0.351931,-0.531988 -0.840175,-0.798123 -1.466989,-0.798123 -0.76341,0 -1.717884,0.402731 -2.863987,1.207909 v 7.705219 H 67.945658 V 17.193401 l 1.665108,-0.524651 v 6.998254 c 1.063976,-0.774417 2.226448,-1.162472 3.489108,-1.162472 0.881661,0 1.595964,0.296898 2.142628,0.888999 0.548357,0.592383 0.821547,1.330111 0.821547,2.212054 v 6.951969 z m 8.851039,-5.18526 c 0,-1.045914 -0.198684,-1.909513 -0.594077,-2.592772 -0.469899,-0.832554 -1.200571,-1.271691 -2.188065,-1.317129 -1.825693,0.105551 -2.736705,1.413931 -2.736705,3.920907 0,1.14949 0.189653,2.10989 0.572064,2.880356 0.488243,0.982132 1.220891,1.466706 2.197378,1.45062 1.833031,-0.01468 2.749405,-1.461345 2.749405,-4.341982 z m 1.823717,0.01101 c 0,1.488438 -0.380999,2.727392 -1.140458,3.716861 -0.836223,1.107721 -1.991357,1.663415 -3.465684,1.663415 -1.461062,0 -2.599827,-0.555977 -3.421374,-1.663415 -0.745066,-0.989469 -1.117034,-2.228423 -1.117034,-3.716861 0,-1.399255 0.40273,-2.576402 1.207909,-3.534827 0.850899,-1.016563 1.969908,-1.52682 3.352795,-1.52682 1.382887,0 2.508669,0.510257 3.375937,1.52682 0.805179,0.958425 1.207909,2.135572 1.207909,3.534827 z m 9.547281,5.174254 H 94.62126 v -6.792231 c 0,-0.745066 -0.224366,-1.326443 -0.672534,-1.745542 -0.448168,-0.417124 -1.045914,-0.619477 -1.79098,-0.603108 -0.790785,0.01468 -1.543188,0.273473 -2.257492,0.774417 v 8.366464 h -1.665108 v -8.572204 c 0.958143,-0.697934 1.840086,-1.15344 2.645265,-1.366518 0.759741,-0.198684 1.4303,-0.297179 2.008007,-0.297179 0.395111,0 0.766797,0.03838 1.116752,0.114864 0.65419,0.151271 1.186178,0.431799 1.595964,0.843843 0.4572,0.455224 0.685235,1.001887 0.685235,1.641402 v 7.63551 z"
         fill="#646464"
         id="path33"
         style="stroke-width:0.282222" />
      <path
         style="line-height:125%;stroke-width:0.282222"
         d="m 99.522888,20.740364 h 0.286173 v -1.794366 h 0.677899 v -0.213924 h -1.641686 v 0.213924 h 0.677614 v 1.794366 m 1.217792,0 h 0.2444 v -1.638862 l 0.53058,1.638862 h 0.27206 l 0.55287,-1.633218 v 1.633218 h 0.2667 v -2.00829 h -0.35278 l -0.60423,1.720706 -0.51534,-1.720706 h -0.39426 v 2.00829"
         font-weight="400"
         font-size="15.164px"
         font-family="'Bitstream Vera Sans'"
         fill="#646464"
         id="path34" />
      <path
         style="line-height:125%;-inkscape-font-specification:'Source Sans Pro Semi-Bold';stroke-width:0.282222"
         d="m 71.079448,40.016958 h 0.843279 v -1.744977 h 0.756072 c 1.02503,0 1.810453,-0.487115 1.810453,-1.541213 0,-1.105181 -0.770748,-1.468682 -1.810453,-1.468682 h -1.599351 z m 0.843279,-2.420898 v -1.657771 h 0.690597 c 0.690596,0 1.047042,0.196426 1.047042,0.792479 0,0.581377 -0.34177,0.865292 -1.047042,0.865292 z m 2.963893,1.461062 c 0,0.625403 0.436315,1.047043 1.061718,1.047043 0.42164,0 0.785141,-0.21082 1.104899,-0.479777 h 0.02173 l 0.06548,0.39257 h 0.683541 v -2.115534 c 0,-0.996243 -0.436315,-1.541496 -1.330393,-1.541496 -0.567266,0 -1.068774,0.218158 -1.461345,0.465384 l 0.305364,0.559928 c 0.31242,-0.189089 0.646853,-0.349108 1.003299,-0.349108 0.479777,0 0.639514,0.319757 0.646852,0.697934 -1.461344,0.16002 -2.101141,0.559928 -2.101141,1.323338 z m 0.814492,-0.06519 c 0,-0.356447 0.319757,-0.610728 1.286931,-0.734341 v 0.799816 c -0.261901,0.246944 -0.487397,0.392288 -0.778085,0.392288 -0.298026,0 -0.508846,-0.138006 -0.508846,-0.457763 z m 2.911118,-0.756073 c 0,1.18505 0.749016,1.868309 1.723246,1.868309 0.406964,0 0.835941,-0.16002 1.170374,-0.458046 l -0.348826,-0.530577 c -0.196427,0.159737 -0.443653,0.305364 -0.734342,0.305364 -0.559928,0 -0.952498,-0.472722 -0.952498,-1.185332 0,-0.719665 0.399908,-1.192105 0.97423,-1.192105 0.225495,0 0.414583,0.09454 0.60339,0.26162 l 0.399908,-0.530577 c -0.239889,-0.232833 -0.588715,-0.414584 -1.047043,-0.414584 -0.952216,0 -1.788439,0.683541 -1.788439,1.875928 z m 3.598045,1.781102 h 0.821548 v -0.908754 l 0.559928,-0.639797 0.916092,1.548551 h 0.908754 l -1.345069,-2.115534 1.221456,-1.454289 h -0.916092 l -1.323056,1.643095 h -0.02201 V 34.884194 H 82.21056 v 5.132485 z m 3.567848,-0.959836 c 0,0.625403 0.436315,1.047043 1.061436,1.047043 0.421639,0 0.785141,-0.21082 1.105181,-0.479777 h 0.02173 l 0.06548,0.39257 h 0.683259 v -2.115534 c 0,-0.996243 -0.436033,-1.541496 -1.330393,-1.541496 -0.567266,0 -1.068774,0.218158 -1.461345,0.465384 l 0.305364,0.559928 c 0.312702,-0.189089 0.647135,-0.349108 1.003299,-0.349108 0.479777,0 0.639796,0.319757 0.647134,0.697934 -1.461344,0.16002 -2.101141,0.559928 -2.101141,1.323338 z m 0.81421,-0.06519 c 0,-0.356447 0.320039,-0.610728 1.286931,-0.734341 v 0.799816 c -0.261902,0.246944 -0.487115,0.392288 -0.778085,0.392288 -0.298027,0 -0.508846,-0.138006 -0.508846,-0.457763 z m 3.601996,1.54855 c 0,-0.167357 0.08749,-0.327377 0.276578,-0.472721 0.138006,0.03669 0.290688,0.0508 0.486832,0.0508 h 0.487115 c 0.407246,0 0.632459,0.08015 0.632459,0.356446 0,0.305364 -0.392288,0.574321 -0.966892,0.574321 -0.567266,0 -0.916092,-0.189088 -0.916092,-0.508846 z m -0.697934,0.123614 c 0,0.625121 0.632459,0.930485 1.483075,0.930485 1.163319,0 1.904997,-0.55259 1.904997,-1.25758 0,-0.618066 -0.450708,-0.879968 -1.308662,-0.879968 h -0.632459 c -0.436315,0 -0.581659,-0.123613 -0.581659,-0.327095 0,-0.16002 0.06547,-0.247226 0.174413,-0.341488 a 1.3165646,1.3165646 0 0 0 0.487115,0.09426 c 0.756354,0 1.352407,-0.42164 1.352407,-1.214118 0,-0.247227 -0.08749,-0.465384 -0.203765,-0.603391 h 0.654473 v -0.618065 h -1.279594 a 1.6086641,1.6086641 0 0 0 -0.523521,-0.08721 c -0.748735,0 -1.410545,0.458046 -1.410545,1.279594 0,0.421639 0.225495,0.76341 0.465384,0.945443 v 0.02879 c -0.203482,0.145345 -0.39257,0.385233 -0.39257,0.661528 0,0.290689 0.138288,0.479777 0.319757,0.596335 v 0.02907 c -0.327095,0.203482 -0.508846,0.465383 -0.508846,0.76341 z m 1.52682,-2.304906 c -0.349109,0 -0.625121,-0.261619 -0.625121,-0.719665 0,-0.450708 0.276012,-0.705272 0.625121,-0.705272 0.348826,0 0.618065,0.261901 0.618065,0.705554 0,0.457764 -0.276577,0.719666 -0.618065,0.719666 z m 2.144039,-0.123331 c 0,1.177712 0.770465,1.868309 1.75937,1.868309 0.450991,0 0.879685,-0.16002 1.221456,-0.385233 L 95.864729,39.19541 c -0.261901,0.167358 -0.523521,0.26162 -0.828885,0.26162 -0.574321,0 -0.981567,-0.363502 -1.054381,-1.010354 h 2.268499 c 0.02173,-0.08749 0.03641,-0.232833 0.03641,-0.39257 0,-0.996243 -0.509128,-1.694178 -1.47602,-1.694178 -0.835941,0 -1.643095,0.71261 -1.643095,1.875928 z m 0.807154,-0.320039 c 0.07253,-0.596052 0.436033,-0.908754 0.857954,-0.908754 0.486833,0 0.727003,0.341488 0.727003,0.908754 z m -22.89496,9.516801 h 0.843279 V 42.678027 H 71.079448 V 47.4329 Z m 1.971884,0 h 0.836223 v -2.493712 c 0.298026,-0.290689 0.501508,-0.44337 0.81421,-0.44337 0.39257,0 0.559928,0.217875 0.559928,0.807154 v 2.129928 h 0.835941 V 45.19347 c 0,-0.901699 -0.334433,-1.417882 -1.097843,-1.417882 -0.487115,0 -0.850616,0.254564 -1.170374,0.567266 h -0.02907 l -0.05814,-0.479778 h -0.690879 z m 3.857407,-1.781102 c 0,1.177711 0.574321,1.868308 1.468682,1.868308 0.385233,0 0.748735,-0.21082 1.010354,-0.472439 h 0.02935 l 0.05814,0.385233 h 0.690597 V 42.29985 h -0.836223 v 1.293987 l 0.02907,0.574321 c -0.276298,-0.239888 -0.53058,-0.392288 -0.937826,-0.392288 -0.777803,0 -1.512144,0.712328 -1.512144,1.875646 z m 0.86501,-0.0073 c 0,-0.749016 0.370839,-1.177994 0.828885,-1.177994 0.239889,0 0.479777,0.08015 0.727004,0.298309 v 1.664826 c -0.239889,0.276295 -0.47244,0.399908 -0.748735,0.399908 -0.516466,0 -0.807154,-0.414583 -0.807154,-1.185331 z m 3.224101,0.0073 c 0,1.177711 0.770748,1.868308 1.759371,1.868308 0.45099,0 0.879968,-0.16002 1.221456,-0.385233 L 83.695326,46.61107 c -0.261902,0.167357 -0.523521,0.26162 -0.828885,0.26162 -0.574321,0 -0.981567,-0.363502 -1.054098,-1.010354 h 2.268216 c 0.02173,-0.08749 0.03641,-0.232833 0.03641,-0.392571 0,-0.996243 -0.508846,-1.694177 -1.47602,-1.694177 -0.835941,0 -1.643096,0.71261 -1.643096,1.875928 z m 0.807155,-0.32004 c 0.07253,-0.596052 0.436032,-0.908754 0.857954,-0.908754 0.487115,0 0.727003,0.341489 0.727003,0.908754 z m 2.603496,2.101142 h 0.872347 l 0.378177,-0.705273 c 0.1016,-0.218157 0.21082,-0.428977 0.31242,-0.632459 h 0.02907 c 0.123613,0.203482 0.247226,0.42164 0.363501,0.632459 L 86.80033,47.4329 h 0.901699 l -1.134532,-1.766709 1.054381,-1.803397 h -0.86501 l -0.34177,0.676204 c -0.08749,0.196426 -0.189089,0.407246 -0.276578,0.60339 h -0.02879 a 24.623286,24.623286 0 0 1 -0.327378,-0.60339 L 85.38273,43.862794 h -0.901698 l 1.061436,1.708571 z"
         font-weight="600"
         font-family="'Source Sans Pro'"
         letter-spacing="0"
         word-spacing="0"
         fill="#646464"
         id="path35" />
    </g>
    <g
       id="g5448"
       transform="matrix(0.02897975,0,0,0.02897975,134.6285,77.110755)">
      <path
         style="fill:#000000;fill-rule:nonzero;stroke:none"
         d="m 231.24871,13.074828 c 13.9647,-2.145714 28.04932,-3.7143076 42.16715,-4.4576601 2.50807,-0.5975609 5.10233,-0.4754423 7.66462,-0.5670221 20.03161,-0.6389616 40.09083,-0.6100499 60.114,0.2920262 36.13984,2.556064 72.09666,8.559881 106.95954,18.568048 l -0.14762,0.19577 c -5.11111,6.912417 -10.23719,13.813955 -15.24925,20.797413 -1.50177,0.277079 -2.81633,-0.67277 -4.15389,-1.151144 C 402.15299,35.837642 373.99723,29.50189 345.65841,26.073356 299.04548,21.299976 251.32409,25.13525 206.6068,39.478656 173.68347,50.127022 141.88954,66.546594 117.33862,91.307584 99.940046,109.10011 86.581823,132.11715 84.768653,157.33636 c -1.687182,12.0186 1.190443,24.01642 3.735937,35.67942 l -110.416603,19.4647 c -0.26686,-19.48213 4.817187,-38.75716 12.9080663,-56.38203 C 7.0889076,121.78138 34.995235,94.363019 66.089674,73.370091 87.115089,59.253246 109.8426,47.736528 133.44845,38.604474 164.89685,26.309475 197.84692,17.908911 231.24871,13.074828 Z"
         id="path16-0"
         sodipodi:nodetypes="cccccccccccccccccc"
         inkscape:connector-curvature="0" />
      <path
         style="fill:#d72123;fill-rule:nonzero;stroke:none"
         d="m 432.75715,47.903403 c 5.01206,-6.983458 10.13814,-13.884996 15.24925,-20.797413 46.80969,13.7098 92.01318,35.358686 128.93772,67.616911 15.09828,13.519939 28.75394,28.815029 39.24184,46.216939 12.41965,20.47919 20.2898,43.93195 21.13188,67.95911 -36.71332,-6.41672 -73.41642,-12.88818 -110.12475,-19.32675 4.51794,-14.36945 4.55651,-30.01449 1.46274,-44.67823 C 522.92208,119.55122 506.67492,97.792388 487.07711,81.275148 470.73988,67.528438 452.10162,56.511479 432.35456,48.448869 Z"
         id="path20-6"
         inkscape:connector-curvature="0" />
      <path
         style="fill:#000000;fill-rule:nonzero;stroke:none"
         d="m 297.41181,149.12508 c 2.16103,-3.5191 5.96608,-6.32608 10.29398,-5.80508 4.89185,0.12513 8.6615,4.16754 9.6749,8.74236 l 345.12714,61.39291 -1.1523,5.78199 -345.05216,-60.50782 c -2.75262,4.78919 -9.13793,7.26259 -14.15442,4.4345 -3.47786,-1.52032 -4.66434,-5.24185 -6.23396,-8.36425 l -21.24592,-3.40419 0.97392,-5.97658 z"
         id="path24-32"
         sodipodi:nodetypes="ccccccccccc"
         inkscape:connector-curvature="0" />
      <path
         style="fill:#000000;fill-rule:nonzero;stroke:none"
         d="m -22.507827,229.83354 c 20.2826547,-0.13619 40.566919,-0.0251 60.850388,-0.0566 0.02008,0.75155 0.06026,2.25465 0.08034,3.0062 14.737927,-3.20945 29.885118,-4.57437 44.958756,-3.74231 10.975803,1.00482 21.053143,5.70851 30.868813,10.37777 -11.06506,6.84335 -22.324554,13.43394 -33.122612,20.6745 -12.032679,-9.29211 -28.386548,-9.30034 -42.418946,-5.23476 -0.175128,1.50142 -0.339799,3.00801 -0.354747,4.52818 0.0071,34.91756 0.01685,69.83575 -0.0041,104.754 -20.275318,-0.007 -40.5503801,0.0187 -60.825544,-0.0128 -0.04309,-44.76492 0.02139,-89.52962 -0.03233,-134.29415 z"
         id="path28-0"
         inkscape:connector-curvature="0" />
      <path
         id="path32-6"
         transform="matrix(0.7611285,0,0,0.7611285,-30.119115,0)"
         d="m 252.55273,301.875 c -11.73278,-0.01 -23.46548,-10e-4 -35.19726,0.0977 l -0.01,225.38672 80.03711,-10.97852 0.0645,-36.37891 c 36.81141,-1.55391 72.97889,-10.81261 105.52148,-28.22461 17.75236,-9.99158 35.19385,-23.35937 43.33789,-42.64062 6.93779,-16.07176 3.8476,-34.9306 -4.99023,-49.61914 C 429.67908,340.60866 410.2624,328.04831 390.18945,319.54883 357.8699,306.17312 322.52509,301.69125 287.75,301.88867 c -11.73273,0.0244 -23.46448,-0.004 -35.19727,-0.0137 z m 44.94922,19.49023 h 0.002 c 20.49693,2.05682 39.02465,13.63904 53.02539,28.29493 12.074,12.69863 20.60876,30.41687 17.66015,48.26367 -3.22299,17.87909 -15.66305,32.40321 -29.65234,43.21484 -12.15018,8.91947 -25.89046,16.62041 -41.03711,18.63867 -0.0523,-46.13742 -0.0601,-92.27531 0.002,-138.41211 z"
         style="fill:#000000;fill-rule:nonzero;stroke:none" />
      <path
         style="fill:#000000;fill-rule:nonzero;stroke:none"
         d="m 351.87058,229.86425 c 69.69969,-0.21288 139.40376,-0.026 209.10552,-0.0936 20.39169,0.0844 41.12262,0.21346 60.95901,5.48864 5.70893,1.88049 13.32257,4.1167 14.82419,10.75273 0.14886,39.37366 0.0555,78.75643 0.0454,118.13382 -20.28681,-0.004 -40.5726,-0.0125 -60.85782,0.004 -0.004,-39.07055 -0.084,-78.14247 0.0396,-117.21163 -3.68531,-3.19739 -8.93912,-3.06098 -13.51483,-3.61936 -12.5114,-0.3257 -25.03284,-0.0933 -37.54633,-0.12856 0.002,40.31903 0.0451,80.63838 -0.0212,120.95765 -20.31552,-0.019 -40.63014,0.006 -60.94438,-0.0124 -0.0602,-32.2959 -0.009,-64.59163 -0.0256,-96.88713 -0.16254,-7.05713 0.35368,-14.14074 -0.30739,-21.17502 -5.71567,-2.40238 -11.97694,-2.87306 -18.10554,-2.90244 -10.88162,-0.0175 -21.762,0.008 -32.64154,-0.0111 -0.0533,40.33269 0.0656,80.66623 -0.0596,120.99879 -19.1288,-0.0244 -38.25726,-0.0377 -57.38482,0.008 l -3.68452,-0.0146 c 0.31471,-44.50866 0.0753,-89.77519 0.11995,-134.28794 z"
         id="path36"
         sodipodi:nodetypes="ccccccccccccccccccc"
         inkscape:connector-curvature="0" />
    </g>
  </g>
</svg>
